<svg width="11" height="6" viewBox="0 0 11 6" fill="none" xmlns="http://www.w3.org/2000/svg">
<path d="M5.01786 0.00176477C5.18479 0.00143862 5.34658 0.0595779 5.47512 0.166091L9.7619 3.73841C9.9078 3.85968 9.99956 4.03395 10.017 4.22287C10.0344 4.41179 9.97605 4.5999 9.85478 4.7458C9.73351 4.89171 9.55924 4.98346 9.37032 5.00088C9.1814 5.0183 8.99329 4.95996 8.84739 4.83869L5.01786 1.63789L1.18833 4.72437C1.11525 4.78372 1.03116 4.82804 0.940896 4.85478C0.850632 4.88152 0.755972 4.89017 0.662356 4.88021C0.568742 4.87025 0.478017 4.84189 0.395399 4.79675C0.31278 4.75161 0.239897 4.6906 0.180938 4.6172C0.115507 4.54374 0.0659523 4.45756 0.0353785 4.36405C0.00480556 4.27055 -0.00612831 4.17174 0.00326252 4.07381C0.0126524 3.97588 0.0421638 3.88095 0.0899496 3.79496C0.137735 3.70897 0.202765 3.63377 0.280964 3.57408L4.56775 0.123224C4.69998 0.0335469 4.85846 -0.00921726 5.01786 0.00176477Z" fill="#6F6E6E"/>
</svg>
